<svg width="22" height="22" viewBox="0 0 22 22" fill="none" xmlns="http://www.w3.org/2000/svg">
<path d="M10.9987 20.1668C16.0613 20.1668 20.1654 16.0628 20.1654 11.0002C20.1654 5.93755 16.0613 1.8335 10.9987 1.8335C5.93609 1.8335 1.83203 5.93755 1.83203 11.0002C1.83203 16.0628 5.93609 20.1668 10.9987 20.1668Z" fill="#6CC600"/>
<path d="M9.69734 14.2816C9.51401 14.2816 9.33984 14.2083 9.21151 14.08L6.61734 11.4858C6.35151 11.22 6.35151 10.78 6.61734 10.5141C6.88318 10.2483 7.32318 10.2483 7.58901 10.5141L9.69734 12.6225L14.409 7.9108C14.6748 7.64497 15.1148 7.64497 15.3807 7.9108C15.6465 8.17663 15.6465 8.61663 15.3807 8.88247L10.1832 14.08C10.0548 14.2083 9.88068 14.2816 9.69734 14.2816Z" fill="white"/>
</svg>
